<svg width="201" height="254" viewBox="0 0 201 254" fill="none" xmlns="http://www.w3.org/2000/svg">
<path d="M145.745 189.445C145.745 190.145 145.745 190.907 145.745 191.606C139.898 190.589 134.433 188.556 129.603 185.569C117.147 178.07 108.504 164.978 107.106 149.726C106.979 148.328 106.915 146.866 106.915 145.404C106.915 143.688 106.979 142.036 107.169 140.447C107.805 134.537 109.521 129.008 112.126 123.924C118.037 128.118 123.312 133.139 127.887 138.795C139.009 152.713 145.745 170.316 145.745 189.445Z" fill="#191717"/>
<path d="M129.539 185.63C117.083 178.131 108.44 165.04 107.042 149.787C106.915 148.389 106.851 146.927 106.851 145.466C106.851 143.75 106.915 142.098 107.106 140.509C109.521 142.542 111.745 144.767 113.778 147.118C122.866 157.541 128.65 170.886 129.539 185.63Z" fill="#191717"/>
<path d="M155.786 98.6905C155.087 98.6269 154.388 98.627 153.626 98.627C135.513 98.627 119.816 108.922 111.999 123.984C109.394 129.005 107.678 134.597 107.042 140.507C106.852 142.16 106.788 143.812 106.788 145.464C106.788 146.926 106.852 148.388 106.979 149.786C108.377 164.975 117.02 178.13 129.476 185.629C134.369 188.552 139.835 190.65 145.618 191.666C148.224 192.111 150.829 192.365 153.562 192.365C179.427 192.365 200.399 171.393 200.399 145.528C200.527 120.362 180.698 99.8344 155.786 98.6905Z" fill="url(#paint0_radial_1340_1242)"/>
<path d="M92.0443 153.283C91.7265 150.741 91.5359 148.136 91.5359 145.467C91.5359 140.637 92.1078 135.87 93.1246 131.358C84.6723 127.227 75.1396 124.939 65.0984 124.939C52.6423 124.939 41.076 128.435 31.2255 134.536C12.8591 145.911 0.593658 166.248 0.593658 189.381C0.593658 224.969 29.446 253.885 65.0984 253.885C96.3658 253.885 122.422 231.642 128.332 202.091C109.013 193.511 94.8405 175.145 92.0443 153.283Z" fill="url(#paint1_radial_1340_1242)"/>
<path d="M158.837 77.2116C158.837 79.3724 158.773 81.4696 158.582 83.5667C156.93 83.4396 155.341 83.3761 153.625 83.3761C129.921 83.3761 109.267 96.7219 98.8441 116.296C88.6123 111.529 77.173 108.86 65.1618 108.86C48.5748 108.86 33.1318 113.881 20.2944 122.524C10.9523 109.814 5.42337 94.1163 5.42337 77.1481C5.42337 34.7592 39.7412 0.441406 82.13 0.441406C124.519 0.504958 158.837 34.8228 158.837 77.2116Z" fill="url(#paint2_radial_1340_1242)"/>
<defs>
<radialGradient id="paint0_radial_1340_1242" cx="0" cy="0" r="1" gradientUnits="userSpaceOnUse" gradientTransform="translate(111.513 170.013) scale(85.7962 85.7962)">
<stop offset="0.033249" stop-color="#F6C180"/>
<stop offset="0.9182" stop-color="#E08139"/>
</radialGradient>
<radialGradient id="paint1_radial_1340_1242" cx="0" cy="0" r="1" gradientUnits="userSpaceOnUse" gradientTransform="translate(24.8871 220.304) scale(105.551 105.551)">
<stop offset="0.033249" stop-color="#5C94B6"/>
<stop offset="0.9182" stop-color="#436CAB"/>
</radialGradient>
<radialGradient id="paint2_radial_1340_1242" cx="0" cy="0" r="1" gradientUnits="userSpaceOnUse" gradientTransform="translate(89.071 60.2669) scale(95.6887 95.6886)">
<stop offset="0.033249" stop-color="#E72F5F"/>
<stop offset="1" stop-color="#EE708C"/>
</radialGradient>
</defs>
</svg>
