<?xml version="1.0" encoding="utf-8"?>
<svg fill="currentColor" fill-rule="evenodd" height="1em" style="flex:none;line-height:1" viewBox="0 0 24 24" width="1em" xmlns="http://www.w3.org/2000/svg">
  <title>Cline</title>
  <path d="M 17.118 3.991 C 19.868 3.991 22.098 6.231 22.098 8.994 L 22.098 10.661 L 23.548 13.557 C 23.691 13.843 23.691 14.18 23.546 14.466 L 22.098 17.33 L 22.098 18.998 C 22.098 21.76 19.868 24 17.118 24 L 7.157 24 C 4.406 24 2.177 21.76 2.177 18.998 L 2.177 17.33 L 0.697 14.475 C 0.546 14.185 0.545 13.839 0.694 13.548 L 2.176 10.661 L 2.176 8.994 C 2.176 6.231 4.406 3.991 7.156 3.991 L 17.118 3.991 L 17.118 3.991 Z M 8.348 9.6 C 7.092 9.6 6.074 10.618 6.074 11.874 L 6.074 15.916 C 6.111 17.666 8.028 18.72 9.525 17.813 C 10.191 17.41 10.605 16.694 10.621 15.916 L 10.621 11.874 C 10.621 10.618 9.603 9.601 8.348 9.6 Z M 15.674 9.6 C 14.418 9.6 13.4 10.618 13.4 11.874 L 13.4 15.916 C 13.4 17.667 15.295 18.761 16.811 17.885 C 17.514 17.479 17.948 16.728 17.948 15.916 L 17.948 11.874 C 17.948 10.618 16.929 9.599 15.673 9.6 L 15.674 9.6 Z" style="fill: rgb(160, 162, 164);"/>
  <path d="M12.054 5.558a2.779 2.779 0 100-5.558 2.779 2.779 0 000 5.558z"/>
</svg>