<?xml version="1.0" encoding="utf-8"?>
<svg version="1.1" id="Layer_1" xmlns="http://www.w3.org/2000/svg" x="0px" y="0px" viewBox="0 0 500 500" style="enable-background:new 0 0 500 500;">
  <style type="text/css">
	.st0{display:none;}
	.st1{display:inline;}
	.st2{opacity:0.61;}
	.st3{fill:#FFFFFF;}
	.st4{display:inline;opacity:0.61;}
	.st5{fill:#010101;}
	.st6{fill:#FEFEFE;}
</style>
  <g id="watermark_1_" class="st0">
    <g class="st1">
      <g id="watermark" class="st2">
        <g>
          <g>
            <g>
              <g>
                <polygon class="st3" points="213.76,461.17 208.2,474.02 205.27,474.02 199.73,461.17 202.94,461.17 206.85,470.35 &#10;&#9;&#9;&#9;&#9;&#9;&#9;&#9;&#9;210.81,461.17 &#9;&#9;&#9;&#9;&#9;&#9;&#9;"/>
              </g>
              <g>
                <path class="st3" d="M223.51,469.74h-7.47c0.28,1.23,1.32,1.98,2.83,1.98c1.05,0,1.8-0.31,2.48-0.95l1.52,1.65 c-0.92,1.05-2.29,1.6-4.07,1.6c-3.41,0-5.63-2.15-5.63-5.08c0-2.95,2.26-5.08,5.27-5.08c2.9,0,5.14,1.95,5.14,5.12 C223.56,469.19,223.53,469.5,223.51,469.74 M216,468.07h4.86c-0.2-1.25-1.14-2.06-2.42-2.06 C217.14,466.02,216.2,466.81,216,468.07"/>
              </g>
              <g>
                <path class="st3" d="M224.74,468.93c0-2.97,2.29-5.08,5.51-5.08c2.07,0,3.71,0.9,4.42,2.51l-2.22,1.19 c-0.53-0.94-1.32-1.36-2.22-1.36c-1.45,0-2.59,1.01-2.59,2.73c0,1.73,1.14,2.73,2.59,2.73c0.9,0,1.69-0.4,2.22-1.36 l2.22,1.21c-0.72,1.58-2.35,2.5-4.42,2.5C227.03,474.02,224.74,471.91,224.74,468.93"/>
              </g>
              <g>
                <path class="st3" d="M242.83,473.39c-0.59,0.42-1.45,0.62-2.33,0.62c-2.33,0-3.69-1.19-3.69-3.54v-4.06h-1.52v-2.2h1.52v-2.4 h2.86v2.4h2.46v2.2h-2.46v4.02c0,0.84,0.46,1.3,1.23,1.3c0.42,0,0.84-0.13,1.16-0.37L242.83,473.39z"/>
              </g>
            </g>
            <g>
              <path class="st3" d="M262.47,464v2.64c-0.24-0.02-0.42-0.04-0.64-0.04c-1.58,0-2.62,0.86-2.62,2.75v4.66h-2.86v-9.87h2.73v1.3 C259.78,464.49,260.95,464,262.47,464"/>
            </g>
            <g>
              <path class="st3" d="M263.3,472.53l1.01-2.24c1.08,0.79,2.7,1.34,4.24,1.34c1.76,0,2.48-0.59,2.48-1.38 c0-2.4-7.47-0.75-7.47-5.52c0-2.18,1.76-4,5.41-4c1.61,0,3.27,0.39,4.46,1.14l-0.92,2.26c-1.19-0.68-2.42-1.01-3.56-1.01 c-1.76,0-2.44,0.66-2.44,1.47c0,2.37,7.47,0.73,7.47,5.45c0,2.15-1.78,3.98-5.45,3.98 C266.49,474.02,264.44,473.41,263.3,472.53"/>
            </g>
            <g>
              <path class="st3" d="M285.43,469.74h-7.47c0.28,1.23,1.32,1.98,2.83,1.98c1.05,0,1.8-0.31,2.48-0.95l1.52,1.65 c-0.92,1.05-2.29,1.6-4.07,1.6c-3.41,0-5.63-2.15-5.63-5.08c0-2.95,2.26-5.08,5.27-5.08c2.9,0,5.14,1.95,5.14,5.12 C285.48,469.19,285.45,469.5,285.43,469.74 M277.92,468.07h4.86c-0.2-1.25-1.14-2.06-2.42-2.06 C279.06,466.02,278.13,466.81,277.92,468.07"/>
            </g>
            <g>
              <path class="st3" d="M297.01,469.74h-7.47c0.28,1.23,1.32,1.98,2.83,1.98c1.05,0,1.8-0.31,2.48-0.95l1.52,1.65 c-0.92,1.05-2.29,1.6-4.07,1.6c-3.41,0-5.63-2.15-5.63-5.08c0-2.95,2.26-5.08,5.27-5.08c2.9,0,5.14,1.95,5.14,5.12 C297.06,469.19,297.02,469.5,297.01,469.74 M289.5,468.07h4.86c-0.2-1.25-1.14-2.06-2.42-2.06 C290.64,466.02,289.7,466.81,289.5,468.07"/>
            </g>
            <g>
              <polygon class="st3" points="303.21,470.14 301.83,471.5 301.83,474.02 298.97,474.02 298.97,460.4 301.83,460.4 &#10;&#9;&#9;&#9;&#9;&#9;&#9;&#9;301.83,468.11 306.02,464.14 309.43,464.14 305.32,468.33 309.8,474.02 306.33,474.02 &#9;&#9;&#9;&#9;&#9;&#9;"/>
            </g>
            <g>
              <path class="st3" d="M256.6,475.36L256.6,475.36l-2.86-2.86c-0.44,0.51-0.95,0.94-1.53,1.28c-0.09,0.07-0.19,0.14-0.28,0.2 l3.03,3.03c0.46,0.46,1.19,0.46,1.65,0C257.06,476.55,257.06,475.81,256.6,475.36"/>
            </g>
            <g>
              <path class="st3" d="M249.98,463.24c0.22-0.17,0.49-0.28,0.8-0.28c0.04,0,0.08,0,0.12,0.01c-0.21-0.16-0.48-0.25-0.76-0.25 c-0.39,0-0.74,0.18-0.98,0.46c-0.05,0-0.1,0.01-0.15,0.01c0.04-0.08,0.06-0.16,0.06-0.25c0-0.23-0.14-0.43-0.35-0.52 c0.09,0.13,0.14,0.28,0.14,0.44c0,0.12-0.03,0.24-0.08,0.34c-2.81,0.2-5.03,2.54-5.03,5.4c0,2.99,2.43,5.42,5.42,5.42 c2.99,0,5.42-2.43,5.42-5.42C254.6,465.88,252.59,463.64,249.98,463.24 M247.98,464.66c0.43,0,0.84,0.11,1.2,0.31 c0.37-0.24,0.82-0.39,1.3-0.39c0.71,0,1.35,0.31,1.78,0.81c-0.44-0.38-1-0.61-1.63-0.61c-0.45,0-0.87,0.12-1.23,0.33 c-0.08,0.05-0.16,0.1-0.23,0.15c-0.07-0.05-0.13-0.09-0.2-0.13c-0.37-0.22-0.8-0.34-1.26-0.34c-0.3,0-0.59,0.05-0.85,0.15 C247.2,464.75,247.58,464.66,247.98,464.66 M251.77,469.1c0.12,0.3,0.18,0.63,0.18,0.98c0,1.53-1.24,2.78-2.78,2.78 c-1.53,0-2.78-1.24-2.78-2.78c0-0.35,0.07-0.67,0.18-0.98c-0.62-0.38-1.03-1.06-1.03-1.85c0-1.2,0.97-2.17,2.17-2.17 c0.56,0,1.08,0.22,1.46,0.57c0.39-0.35,0.9-0.57,1.46-0.57c1.2,0,2.17,0.97,2.17,2.17 C252.81,468.03,252.39,468.72,251.77,469.1"/>
            </g>
            <g>
              <path class="st3" d="M251.67,467.06c0,0.5-0.4,0.9-0.9,0.9c-0.5,0-0.9-0.4-0.9-0.9s0.4-0.9,0.9-0.9c0.1,0,0.2,0.02,0.29,0.05 c-0.03,0.06-0.05,0.13-0.05,0.2c0,0.27,0.22,0.49,0.49,0.49c0.05,0,0.1-0.01,0.15-0.02 C251.66,466.94,251.67,467,251.67,467.06"/>
            </g>
            <g>
              <path class="st3" d="M248.26,467.06c0,0.38-0.31,0.68-0.68,0.68c-0.38,0-0.68-0.31-0.68-0.68s0.31-0.68,0.68-0.68 c0.08,0,0.15,0.01,0.22,0.04c-0.02,0.05-0.03,0.1-0.03,0.15c0,0.21,0.17,0.37,0.37,0.37c0.04,0,0.08-0.01,0.11-0.02 C248.25,466.97,248.26,467.02,248.26,467.06"/>
            </g>
            <g>
              <g>
                <g>
                  <rect x="242.91" y="467.83" class="st3" width="0.62" height="0.62"/>
                </g>
                <g>
                  <rect x="254.83" y="467.83" class="st3" width="0.62" height="0.62"/>
                </g>
                <g>
                  <path class="st3" d="M255.21,468.08h-0.14c0-3.25-2.64-5.89-5.89-5.89c-3.25,0-5.89,2.64-5.89,5.89h-0.14 c0-1.61,0.63-3.12,1.77-4.26c1.14-1.14,2.65-1.77,4.26-1.77c1.61,0,3.12,0.63,4.26,1.77 C254.58,464.96,255.21,466.47,255.21,468.08"/>
                </g>
              </g>
              <g>
                <rect x="248.87" y="461.81" class="st3" width="0.62" height="0.62"/>
              </g>
              <g>
                <rect x="244.95" y="462.05" class="st3" width="8.45" height="0.14"/>
              </g>
              <g>
                <path class="st3" d="M245.17,462.15c0,0.11-0.09,0.2-0.2,0.2c-0.11,0-0.2-0.09-0.2-0.2c0-0.11,0.09-0.2,0.2-0.2 C245.09,461.95,245.17,462.04,245.17,462.15"/>
              </g>
              <g>
                <path class="st3" d="M253.6,462.15c0,0.11-0.09,0.2-0.2,0.2c-0.11,0-0.2-0.09-0.2-0.2c0-0.11,0.09-0.2,0.2-0.2 C253.51,461.95,253.6,462.04,253.6,462.15"/>
              </g>
            </g>
          </g>
          <g>
            <path class="st3" d="M314.36,473.41c0,1.56-2.36,1.56-2.36,0C311.99,471.85,314.36,471.85,314.36,473.41z"/>
          </g>
          <g>
            <g>
              <g>
                <path class="st3" d="M161.74,466.55l1.77,6.09l1.85-6.09h2.22l-2.82,8.14h-2.33l-0.84-2.4l-0.72-2.71l-0.72,2.71l-0.84,2.4 h-2.33l-2.84-8.14h2.23l1.85,6.09l1.76-6.09H161.74z"/>
              </g>
              <g>
                <path class="st3" d="M176.71,466.55l1.77,6.09l1.85-6.09h2.22l-2.82,8.14h-2.33l-0.84-2.4l-0.72-2.71l-0.72,2.71l-0.84,2.4 h-2.33l-2.84-8.14h2.23l1.85,6.09l1.76-6.09H176.71z"/>
              </g>
              <g>
                <path class="st3" d="M191.69,466.55l1.77,6.09l1.85-6.09h2.22l-2.82,8.14h-2.33l-0.84-2.4l-0.72-2.71l-0.72,2.71l-0.84,2.4 h-2.33l-2.84-8.14h2.23l1.85,6.09l1.76-6.09H191.69z"/>
              </g>
            </g>
            <g>
              <path class="st3" d="M200.91,473.52c0,1.56-2.36,1.56-2.36,0C198.54,471.96,200.91,471.96,200.91,473.52z"/>
            </g>
            <g>
              <path class="st3" d="M322.71,473.41c-0.94,0.92-1.92,1.28-3.12,1.28c-2.35,0-4.3-1.41-4.3-4.28s1.95-4.28,4.3-4.28 c1.15,0,2.03,0.33,2.92,1.2l-1.26,1.33c-0.48-0.43-1.07-0.64-1.62-0.64c-1.35,0-2.33,0.98-2.33,2.4c0,1.54,1.05,2.36,2.3,2.36 c0.64,0,1.28-0.18,1.77-0.67L322.71,473.41z"/>
            </g>
            <g>
              <path class="st3" d="M331.81,470.47c0,2.33-1.59,4.22-4.22,4.22c-2.63,0-4.2-1.89-4.2-4.22c0-2.31,1.61-4.22,4.18-4.22 C330.15,466.26,331.81,468.16,331.81,470.47z M325.39,470.47c0,1.23,0.74,2.38,2.2,2.38c1.46,0,2.2-1.15,2.2-2.38 c0-1.21-0.85-2.4-2.2-2.4C326.14,468.08,325.39,469.26,325.39,470.47z"/>
            </g>
            <g>
              <path class="st3" d="M338.57,474.69v-4.33c0-1.07-0.56-2.03-1.66-2.03c-1.08,0-1.72,0.97-1.72,2.03v4.33h-2v-8.11h1.85 l0.15,0.98c0.43-0.82,1.36-1.12,2.13-1.12c0.97,0,1.94,0.39,2.4,1.51c0.72-1.15,1.66-1.48,2.71-1.48 c2.3,0,3.43,1.41,3.43,3.84v4.37h-2v-4.37c0-1.07-0.44-1.97-1.53-1.97c-1.08,0-1.76,0.94-1.76,2v4.33H338.57z"/>
            </g>
          </g>
        </g>
      </g>
      <g class="st2">
        <g>
          <g>
            <path class="st3" d="M345.99,431.3c-0.01-1.22-0.96-2.12-2.19-2.14c-0.92-0.01-0.83,0.12-0.83-0.87c0-1.1-0.01-2.19,0-3.29 c0-0.38-0.11-0.69-0.36-0.98c-2.34-2.67-4.68-5.34-7.02-8.01c-0.12-0.14-0.28-0.24-0.41-0.37c-6.21,0-12.43,0-18.64,0 c-0.79,0.29-1.14,0.87-1.14,1.71c0.01,3.75,0,7.5,0,11.24c0,0.56,0,0.59-0.55,0.55c-1.5-0.1-2.52,0.99-2.5,2.49 c0.04,3.48,0.01,6.95,0.01,10.43c0,1.58,0.87,2.44,2.45,2.45c0.58,0,0.58,0,0.58,0.6c0,2.22,0,4.44,0,6.66 c0,1.19,0.58,1.77,1.77,1.77c8.01,0,16.03,0,24.04,0c1.17,0,1.76-0.58,1.76-1.75c0-2.26,0-4.51,0-6.77c0-0.51,0-0.51,0.52-0.52 c0.27,0,0.54,0.01,0.81-0.06c1-0.25,1.69-1.04,1.69-2.07C346,438.7,346.01,435,345.99,431.3z M317.54,417.16 c5.34,0,10.67,0,16.01,0c0.55,0,0.55,0.01,0.55,0.56c0,2.24,0,4.49,0,6.73c0,0.81,0.25,1.06,1.06,1.06c1.91,0,3.82,0,5.73,0 c0.46,0,0.48,0.02,0.48,0.48c0,0.89,0,1.77,0,2.66c0,0.48-0.02,0.5-0.5,0.5c-3.89,0-7.79,0-11.68,0c-3.88,0-7.76,0-11.65,0 c-0.55,0-0.55,0-0.55-0.56c0-3.62,0-7.25,0-10.87C316.99,417.17,316.99,417.16,317.54,417.16z M340.82,451.58 c-3.88,0-7.77,0-11.65,0c-3.87,0-7.74,0-11.61,0c-0.57,0-0.57,0-0.57-0.58c0-2,0-3.99,0-5.99c0-0.46,0.02-0.49,0.48-0.49 c7.8,0,15.61,0,23.41,0c0.48,0,0.5,0.02,0.5,0.5c0,2,0,3.99,0,5.99C341.37,451.57,341.37,451.58,340.82,451.58z"/>
          </g>
          <g>
            <g>
              <rect x="327.42" y="417.05" class="st3" width="1.76" height="1.05"/>
            </g>
            <g>
              <rect x="325.66" y="418.11" class="st3" width="1.76" height="1.05"/>
            </g>
            <g>
              <rect x="327.42" y="419.16" class="st3" width="1.76" height="1.05"/>
            </g>
            <g>
              <rect x="325.66" y="420.22" class="st3" width="1.76" height="1.05"/>
            </g>
            <g>
              <rect x="327.42" y="421.27" class="st3" width="1.76" height="1.05"/>
            </g>
            <g>
              <rect x="325.66" y="422.32" class="st3" width="1.76" height="1.05"/>
            </g>
            <g>
              <rect x="327.42" y="423.38" class="st3" width="1.76" height="1.05"/>
            </g>
            <g>
              <rect x="325.66" y="424.43" class="st3" width="1.76" height="1.05"/>
            </g>
            <g>
              <rect x="327.42" y="425.49" class="st3" width="1.76" height="1.05"/>
            </g>
            <g>
              <rect x="325.66" y="426.54" class="st3" width="1.76" height="1.05"/>
            </g>
            <g>
              <rect x="327.42" y="427.59" class="st3" width="1.76" height="1.05"/>
            </g>
            <g>
              <rect x="325.66" y="428.65" class="st3" width="1.76" height="1.05"/>
            </g>
          </g>
        </g>
        <g>
          <path class="st3" d="M187.64,431.3c-0.01-1.22-0.96-2.12-2.19-2.14c-0.92-0.01-0.83,0.12-0.83-0.87c0-1.1-0.01-2.19,0-3.29 c0-0.38-0.11-0.69-0.36-0.98c-2.34-2.67-4.68-5.34-7.02-8.01c-0.12-0.14-0.28-0.24-0.41-0.37c-6.21,0-12.43,0-18.64,0 c-0.79,0.29-1.14,0.87-1.14,1.71c0.01,3.75,0,7.5,0,11.24c0,0.56,0,0.59-0.55,0.55c-1.5-0.1-2.52,0.99-2.5,2.49 c0.04,3.48,0.01,6.95,0.01,10.43c0,1.58,0.87,2.44,2.45,2.45c0.58,0,0.58,0,0.58,0.6c0,2.22,0,4.44,0,6.66 c0,1.19,0.58,1.77,1.77,1.77c8.01,0,16.03,0,24.04,0c1.17,0,1.76-0.58,1.76-1.75c0-2.26,0-4.51,0-6.77c0-0.51,0-0.51,0.52-0.52 c0.27,0,0.54,0.01,0.81-0.06c1-0.25,1.69-1.04,1.69-2.07C187.65,438.7,187.65,435,187.64,431.3z M159.19,417.16 c5.34,0,10.67,0,16.01,0c0.55,0,0.55,0.01,0.55,0.56c0,2.24,0,4.49,0,6.73c0,0.81,0.25,1.06,1.06,1.06c1.91,0,3.82,0,5.73,0 c0.46,0,0.48,0.02,0.48,0.48c0,0.89,0,1.77,0,2.66c0,0.48-0.02,0.5-0.5,0.5c-3.89,0-7.79,0-11.68,0c-3.88,0-7.76,0-11.65,0 c-0.55,0-0.55,0-0.55-0.56c0-3.62,0-7.25,0-10.87C158.64,417.17,158.64,417.16,159.19,417.16z M182.47,451.58 c-3.88,0-7.77,0-11.65,0c-3.87,0-7.74,0-11.61,0c-0.57,0-0.57,0-0.57-0.58c0-2,0-3.99,0-5.99c0-0.46,0.02-0.49,0.48-0.49 c7.8,0,15.61,0,23.41,0c0.48,0,0.5,0.02,0.5,0.5c0,2,0,3.99,0,5.99C183.02,451.57,183.02,451.58,182.47,451.58z"/>
        </g>
        <g>
          <path class="st3" d="M159.78,440.67v-7.9h2.78c0.38,0,0.73,0.06,1.05,0.18c0.33,0.12,0.61,0.29,0.85,0.51 c0.24,0.22,0.43,0.48,0.57,0.79c0.14,0.31,0.21,0.64,0.21,1.01c0,0.37-0.07,0.72-0.21,1.02c-0.14,0.31-0.33,0.57-0.57,0.79 c-0.24,0.22-0.53,0.39-0.85,0.51c-0.33,0.12-0.68,0.18-1.05,0.18h-1.29v2.9H159.78z M162.58,436.36c0.39,0,0.68-0.11,0.88-0.33 c0.2-0.22,0.3-0.47,0.3-0.76c0-0.14-0.02-0.28-0.07-0.41c-0.05-0.13-0.12-0.25-0.22-0.35c-0.1-0.1-0.22-0.18-0.37-0.24 c-0.15-0.06-0.32-0.09-0.52-0.09h-1.31v2.17H162.58z"/>
          <path class="st3" d="M166.31,432.77h1.73l3.18,5.29h0.09l-0.09-1.52v-3.77h1.48v7.9h-1.57l-3.35-5.59h-0.09l0.09,1.52v4.07 h-1.47V432.77z"/>
          <path class="st3" d="M177.92,436.33h3.87c0.02,0.09,0.04,0.2,0.05,0.32c0.01,0.12,0.02,0.25,0.02,0.38 c0,0.51-0.08,0.99-0.23,1.43c-0.15,0.45-0.4,0.85-0.73,1.2c-0.35,0.38-0.78,0.67-1.27,0.87c-0.49,0.21-1.06,0.31-1.69,0.31 c-0.57,0-1.11-0.1-1.62-0.31c-0.51-0.21-0.95-0.49-1.32-0.86c-0.38-0.37-0.67-0.8-0.89-1.31c-0.22-0.5-0.33-1.05-0.33-1.65 c0-0.6,0.11-1.15,0.33-1.65c0.22-0.5,0.52-0.94,0.89-1.31c0.38-0.37,0.82-0.65,1.32-0.86c0.51-0.21,1.05-0.31,1.62-0.31 c0.64,0,1.21,0.11,1.71,0.33c0.5,0.22,0.94,0.53,1.3,0.92l-1.03,1c-0.26-0.27-0.54-0.48-0.86-0.62 c-0.32-0.14-0.7-0.22-1.14-0.22c-0.36,0-0.7,0.06-1.03,0.19c-0.32,0.13-0.61,0.31-0.85,0.55c-0.24,0.24-0.44,0.52-0.58,0.85 c-0.14,0.33-0.22,0.71-0.22,1.12c0,0.41,0.07,0.79,0.22,1.12c0.14,0.33,0.34,0.62,0.58,0.85c0.25,0.24,0.53,0.42,0.86,0.55 c0.32,0.13,0.67,0.19,1.04,0.19c0.42,0,0.77-0.06,1.06-0.18c0.29-0.12,0.54-0.28,0.74-0.47c0.15-0.13,0.27-0.3,0.38-0.5 c0.11-0.2,0.19-0.43,0.25-0.68h-2.48V436.33z"/>
        </g>
        <g>
          <path class="st3" d="M224.02,431.3c-0.01-1.22-0.96-2.12-2.19-2.14c-0.92-0.01-0.83,0.12-0.83-0.87c0-1.1-0.01-2.19,0-3.29 c0-0.38-0.11-0.69-0.36-0.98c-2.34-2.67-4.68-5.34-7.02-8.01c-0.12-0.14-0.28-0.24-0.41-0.37c-6.21,0-12.43,0-18.64,0 c-0.79,0.29-1.14,0.87-1.14,1.71c0.01,3.75,0,7.5,0,11.24c0,0.56,0,0.59-0.55,0.55c-1.5-0.1-2.52,0.99-2.5,2.49 c0.04,3.48,0.01,6.95,0.01,10.43c0,1.58,0.87,2.44,2.45,2.45c0.58,0,0.58,0,0.58,0.6c0,2.22,0,4.44,0,6.66 c0,1.19,0.58,1.77,1.77,1.77c8.01,0,16.03,0,24.04,0c1.17,0,1.76-0.58,1.76-1.75c0-2.26,0-4.51,0-6.77c0-0.51,0-0.51,0.52-0.52 c0.27,0,0.54,0.01,0.81-0.06c1-0.25,1.69-1.04,1.69-2.07C224.03,438.7,224.04,435,224.02,431.3z M195.57,417.16 c5.34,0,10.67,0,16.01,0c0.55,0,0.55,0.01,0.55,0.56c0,2.24,0,4.49,0,6.73c0,0.81,0.25,1.06,1.06,1.06c1.91,0,3.82,0,5.73,0 c0.46,0,0.48,0.02,0.48,0.48c0,0.89,0,1.77,0,2.66c0,0.48-0.02,0.5-0.5,0.5c-3.89,0-7.79,0-11.68,0c-3.88,0-7.76,0-11.65,0 c-0.55,0-0.55,0-0.55-0.56c0-3.62,0-7.25,0-10.87C195.02,417.17,195.02,417.16,195.57,417.16z M218.85,451.58 c-3.88,0-7.77,0-11.65,0c-3.87,0-7.74,0-11.61,0c-0.57,0-0.57,0-0.57-0.58c0-2,0-3.99,0-5.99c0-0.46,0.02-0.49,0.48-0.49 c7.8,0,15.61,0,23.41,0c0.48,0,0.5,0.02,0.5,0.5c0,2,0,3.99,0,5.99C219.41,451.57,219.4,451.58,218.85,451.58z"/>
        </g>
        <g>
          <path class="st3" d="M205.11,432.77h1.7l2.97,7.9h-1.64l-0.65-1.89h-3.04l-0.65,1.89h-1.64L205.11,432.77z M207,437.42 l-0.71-1.97l-0.29-0.96h-0.09l-0.29,0.96l-0.71,1.97H207z"/>
          <path class="st3" d="M211.33,434.54c-0.13,0-0.24-0.02-0.36-0.07c-0.11-0.05-0.21-0.11-0.3-0.2c-0.08-0.08-0.15-0.18-0.2-0.29 c-0.05-0.11-0.07-0.23-0.07-0.36s0.02-0.25,0.07-0.36c0.05-0.11,0.11-0.21,0.2-0.29c0.08-0.08,0.18-0.15,0.3-0.2 c0.11-0.05,0.23-0.07,0.36-0.07c0.26,0,0.48,0.09,0.66,0.27c0.18,0.18,0.28,0.4,0.28,0.66s-0.09,0.48-0.28,0.66 C211.81,434.45,211.59,434.54,211.33,434.54z M210.61,440.67v-5.4h1.44v5.4H210.61z"/>
        </g>
        <g>
          <path class="st3" d="M261.04,431.3c-0.01-1.22-0.96-2.12-2.19-2.14c-0.92-0.01-0.83,0.12-0.83-0.87c0-1.1-0.01-2.19,0-3.29 c0-0.38-0.11-0.69-0.36-0.98c-2.34-2.67-4.68-5.34-7.02-8.01c-0.12-0.14-0.28-0.24-0.41-0.37c-6.21,0-12.43,0-18.64,0 c-0.79,0.29-1.14,0.87-1.14,1.71c0.01,3.75,0,7.5,0,11.24c0,0.56,0,0.59-0.55,0.55c-1.5-0.1-2.52,0.99-2.5,2.49 c0.04,3.48,0.01,6.95,0.01,10.43c0,1.58,0.87,2.44,2.45,2.45c0.58,0,0.58,0,0.58,0.6c0,2.22,0,4.44,0,6.66 c0,1.19,0.58,1.77,1.77,1.77c8.01,0,16.03,0,24.04,0c1.17,0,1.76-0.58,1.76-1.75c0-2.26,0-4.51,0-6.77c0-0.51,0-0.51,0.52-0.52 c0.27,0,0.54,0.01,0.81-0.06c1-0.25,1.69-1.04,1.69-2.07C261.06,438.7,261.06,435,261.04,431.3z M232.59,417.16 c5.34,0,10.67,0,16.01,0c0.55,0,0.55,0.01,0.55,0.56c0,2.24,0,4.49,0,6.73c0,0.81,0.25,1.06,1.06,1.06c1.91,0,3.82,0,5.73,0 c0.46,0,0.48,0.02,0.48,0.48c0,0.89,0,1.77,0,2.66c0,0.48-0.02,0.5-0.5,0.5c-3.89,0-7.79,0-11.68,0c-3.88,0-7.76,0-11.65,0 c-0.55,0-0.55,0-0.55-0.56c0-3.62,0-7.25,0-10.87C232.04,417.17,232.05,417.16,232.59,417.16z M255.88,451.58 c-3.88,0-7.77,0-11.65,0c-3.87,0-7.74,0-11.61,0c-0.57,0-0.57,0-0.57-0.58c0-2,0-3.99,0-5.99c0-0.46,0.02-0.49,0.48-0.49 c7.8,0,15.61,0,23.41,0c0.48,0,0.5,0.02,0.5,0.5c0,2,0,3.99,0,5.99C256.43,451.57,256.43,451.58,255.88,451.58z"/>
        </g>
        <g>
          <path class="st3" d="M236.36,440.84c-0.34,0-0.66-0.05-0.97-0.14c-0.31-0.1-0.59-0.24-0.85-0.43c-0.26-0.19-0.48-0.42-0.67-0.7 c-0.19-0.28-0.34-0.6-0.45-0.97l1.4-0.55c0.1,0.4,0.28,0.73,0.54,0.99c0.26,0.26,0.6,0.39,1.01,0.39c0.15,0,0.3-0.02,0.45-0.06 c0.14-0.04,0.27-0.1,0.39-0.18s0.2-0.17,0.27-0.29c0.07-0.12,0.1-0.25,0.1-0.41c0-0.15-0.03-0.28-0.08-0.4 c-0.05-0.12-0.14-0.23-0.26-0.33c-0.12-0.1-0.28-0.2-0.47-0.3c-0.19-0.1-0.44-0.19-0.72-0.3l-0.49-0.18 c-0.21-0.07-0.43-0.17-0.65-0.3c-0.22-0.12-0.41-0.28-0.59-0.45c-0.18-0.18-0.32-0.38-0.44-0.62c-0.11-0.24-0.17-0.51-0.17-0.81 c0-0.31,0.06-0.6,0.18-0.87c0.12-0.27,0.29-0.5,0.52-0.71c0.22-0.2,0.49-0.36,0.8-0.47s0.66-0.17,1.04-0.17 c0.4,0,0.74,0.05,1.03,0.16c0.29,0.11,0.54,0.24,0.74,0.41c0.2,0.17,0.37,0.35,0.49,0.55c0.12,0.2,0.22,0.39,0.28,0.56 l-1.31,0.55c-0.07-0.22-0.21-0.42-0.4-0.6c-0.2-0.18-0.46-0.26-0.8-0.26c-0.32,0-0.59,0.08-0.8,0.23 c-0.21,0.15-0.32,0.35-0.32,0.59c0,0.24,0.1,0.44,0.31,0.6c0.21,0.17,0.53,0.33,0.98,0.48l0.5,0.17 c0.32,0.11,0.6,0.24,0.87,0.38c0.26,0.14,0.49,0.31,0.67,0.51c0.19,0.2,0.33,0.42,0.43,0.68c0.1,0.25,0.15,0.55,0.15,0.88 c0,0.41-0.08,0.77-0.25,1.06c-0.17,0.3-0.38,0.54-0.63,0.73c-0.26,0.19-0.55,0.33-0.87,0.43 C236.99,440.8,236.67,440.84,236.36,440.84z"/>
          <path class="st3" d="M239.52,432.77h1.61l1.63,4.75l0.29,1.01h0.09l0.31-1.01l1.7-4.75h1.61l-2.88,7.9h-1.57L239.52,432.77z"/>
          <path class="st3" d="M251.1,436.33h3.87c0.02,0.09,0.04,0.2,0.05,0.32c0.02,0.12,0.02,0.25,0.02,0.38 c0,0.51-0.08,0.99-0.23,1.43c-0.15,0.45-0.4,0.85-0.73,1.2c-0.35,0.38-0.78,0.67-1.27,0.87c-0.49,0.21-1.06,0.31-1.69,0.31 c-0.57,0-1.11-0.1-1.62-0.31c-0.51-0.21-0.95-0.49-1.32-0.86c-0.38-0.37-0.67-0.8-0.89-1.31c-0.22-0.5-0.33-1.05-0.33-1.65 c0-0.6,0.11-1.15,0.33-1.65c0.22-0.5,0.52-0.94,0.89-1.31c0.38-0.37,0.82-0.65,1.32-0.86c0.51-0.21,1.05-0.31,1.62-0.31 c0.64,0,1.21,0.11,1.71,0.33c0.5,0.22,0.94,0.53,1.3,0.92l-1.03,1c-0.26-0.27-0.54-0.48-0.86-0.62 c-0.32-0.14-0.69-0.22-1.14-0.22c-0.36,0-0.7,0.06-1.03,0.19c-0.32,0.13-0.61,0.31-0.85,0.55c-0.24,0.24-0.44,0.52-0.58,0.85 c-0.14,0.33-0.22,0.71-0.22,1.12c0,0.41,0.07,0.79,0.22,1.12c0.14,0.33,0.34,0.62,0.58,0.85c0.25,0.24,0.53,0.42,0.85,0.55 c0.32,0.13,0.67,0.19,1.04,0.19c0.42,0,0.77-0.06,1.06-0.18c0.29-0.12,0.54-0.28,0.74-0.47c0.15-0.13,0.27-0.3,0.38-0.5 c0.11-0.2,0.19-0.43,0.25-0.68h-2.48V436.33z"/>
        </g>
        <g>
          <path class="st3" d="M297.3,431.3c-0.01-1.22-0.96-2.12-2.19-2.14c-0.92-0.01-0.83,0.12-0.83-0.87c0-1.1-0.01-2.19,0-3.29 c0-0.38-0.11-0.69-0.36-0.98c-2.34-2.67-4.68-5.34-7.02-8.01c-0.12-0.14-0.28-0.24-0.41-0.37c-6.21,0-12.43,0-18.64,0 c-0.79,0.29-1.14,0.87-1.14,1.71c0.01,3.75,0,7.5,0,11.24c0,0.56,0,0.59-0.55,0.55c-1.5-0.1-2.52,0.99-2.5,2.49 c0.04,3.48,0.01,6.95,0.01,10.43c0,1.58,0.87,2.44,2.45,2.45c0.58,0,0.58,0,0.58,0.6c0,2.22,0,4.44,0,6.66 c0,1.19,0.58,1.77,1.77,1.77c8.01,0,16.03,0,24.04,0c1.17,0,1.76-0.58,1.76-1.75c0-2.26,0-4.51,0-6.77c0-0.51,0-0.51,0.52-0.52 c0.27,0,0.54,0.01,0.81-0.06c1-0.25,1.69-1.04,1.69-2.07C297.32,438.7,297.32,435,297.3,431.3z M268.85,417.16 c5.34,0,10.67,0,16.01,0c0.55,0,0.55,0.01,0.55,0.56c0,2.24,0,4.49,0,6.73c0,0.81,0.25,1.06,1.06,1.06c1.91,0,3.82,0,5.73,0 c0.46,0,0.48,0.02,0.48,0.48c0,0.89,0,1.77,0,2.66c0,0.48-0.02,0.5-0.5,0.5c-3.89,0-7.79,0-11.68,0c-3.88,0-7.76,0-11.65,0 c-0.55,0-0.55,0-0.55-0.56c0-3.62,0-7.25,0-10.87C268.3,417.17,268.3,417.16,268.85,417.16z M292.13,451.58 c-3.88,0-7.77,0-11.65,0c-3.87,0-7.74,0-11.61,0c-0.57,0-0.57,0-0.57-0.58c0-2,0-3.99,0-5.99c0-0.46,0.02-0.49,0.48-0.49 c7.8,0,15.61,0,23.41,0c0.48,0,0.5,0.02,0.5,0.5c0,2,0,3.99,0,5.99C292.69,451.57,292.68,451.58,292.13,451.58z"/>
        </g>
        <g>
          <path class="st3" d="M272.97,434.18v1.83h3.17v1.41h-3.17v1.83h3.52v1.41h-5.01v-7.9h5.01v1.41H272.97z"/>
          <path class="st3" d="M277.85,440.67v-7.9h2.78c0.38,0,0.73,0.06,1.05,0.18c0.33,0.12,0.61,0.29,0.85,0.51 c0.24,0.22,0.43,0.48,0.57,0.79c0.14,0.31,0.21,0.64,0.21,1.01c0,0.37-0.07,0.72-0.21,1.02c-0.14,0.31-0.33,0.57-0.57,0.79 c-0.24,0.22-0.53,0.39-0.85,0.51c-0.33,0.12-0.68,0.18-1.05,0.18h-1.29v2.9H277.85z M280.65,436.36c0.39,0,0.68-0.11,0.88-0.33 c0.2-0.22,0.3-0.47,0.3-0.76c0-0.14-0.02-0.28-0.07-0.41c-0.05-0.13-0.12-0.25-0.22-0.35c-0.1-0.1-0.22-0.18-0.37-0.24 c-0.15-0.06-0.32-0.09-0.52-0.09h-1.31v2.17H280.65z"/>
          <path class="st3" d="M286.8,440.84c-0.34,0-0.66-0.05-0.97-0.14c-0.31-0.1-0.59-0.24-0.85-0.43c-0.26-0.19-0.48-0.42-0.67-0.7 c-0.19-0.28-0.34-0.6-0.45-0.97l1.4-0.55c0.1,0.4,0.28,0.73,0.54,0.99c0.26,0.26,0.6,0.39,1.01,0.39c0.15,0,0.3-0.02,0.45-0.06 c0.14-0.04,0.27-0.1,0.39-0.18c0.11-0.08,0.2-0.17,0.27-0.29c0.07-0.12,0.1-0.25,0.1-0.41c0-0.15-0.03-0.28-0.08-0.4 c-0.05-0.12-0.14-0.23-0.26-0.33c-0.12-0.1-0.28-0.2-0.47-0.3c-0.19-0.1-0.44-0.19-0.72-0.3l-0.49-0.18 c-0.21-0.07-0.43-0.17-0.65-0.3c-0.22-0.12-0.41-0.28-0.59-0.45c-0.18-0.18-0.32-0.38-0.44-0.62c-0.11-0.24-0.17-0.51-0.17-0.81 c0-0.31,0.06-0.6,0.18-0.87c0.12-0.27,0.29-0.5,0.52-0.71c0.22-0.2,0.49-0.36,0.81-0.47c0.31-0.11,0.66-0.17,1.04-0.17 c0.4,0,0.74,0.05,1.03,0.16c0.29,0.11,0.54,0.24,0.74,0.41c0.2,0.17,0.37,0.35,0.49,0.55c0.12,0.2,0.22,0.39,0.28,0.56 l-1.31,0.55c-0.07-0.22-0.21-0.42-0.4-0.6c-0.19-0.18-0.46-0.26-0.8-0.26c-0.32,0-0.59,0.08-0.81,0.23 c-0.21,0.15-0.32,0.35-0.32,0.59c0,0.24,0.1,0.44,0.31,0.6c0.21,0.17,0.53,0.33,0.98,0.48l0.5,0.17 c0.32,0.11,0.6,0.24,0.87,0.38c0.26,0.14,0.49,0.31,0.67,0.51c0.19,0.2,0.33,0.42,0.43,0.68c0.1,0.25,0.15,0.55,0.15,0.88 c0,0.41-0.08,0.77-0.25,1.06c-0.17,0.3-0.38,0.54-0.63,0.73c-0.26,0.19-0.55,0.33-0.87,0.43 C287.42,440.8,287.11,440.84,286.8,440.84z"/>
        </g>
        <g>
          <path class="st3" d="M321.39,439.17l4-4.99h-3.83v-1.41h5.56v1.5l-3.96,4.99h4v1.41h-5.78V439.17z"/>
          <path class="st3" d="M328.41,432.77h1.49v7.9h-1.49V432.77z"/>
          <path class="st3" d="M331.49,440.67v-7.9h2.78c0.38,0,0.73,0.06,1.05,0.18c0.33,0.12,0.61,0.29,0.85,0.51s0.43,0.48,0.57,0.79 c0.14,0.31,0.21,0.64,0.21,1.01c0,0.37-0.07,0.72-0.21,1.02c-0.14,0.31-0.33,0.57-0.57,0.79c-0.24,0.22-0.53,0.39-0.85,0.51 c-0.33,0.12-0.68,0.18-1.05,0.18h-1.29v2.9H331.49z M334.29,436.36c0.39,0,0.68-0.11,0.88-0.33c0.2-0.22,0.3-0.47,0.3-0.76 c0-0.14-0.02-0.28-0.07-0.41c-0.05-0.13-0.12-0.25-0.22-0.35c-0.1-0.1-0.22-0.18-0.37-0.24c-0.15-0.06-0.32-0.09-0.52-0.09 h-1.31v2.17H334.29z"/>
        </g>
      </g>
      <g class="st2">
        <path class="st3" d="M300.13,433.27h9.07v2.24h-9.07V433.27z M300.13,437.14h9.07v2.24h-9.07V437.14z"/>
      </g>
    </g>
    <g class="st4">
      <path class="st3" d="M156.76,478.88h1.61c1.26,0,2.11,0.81,2.11,1.97c0,1.16-0.85,1.97-2.11,1.97h-1.61V478.88z M158.34,482.46 c1.05,0,1.73-0.67,1.73-1.61c0-0.95-0.68-1.61-1.73-1.61h-1.17v3.23H158.34z"/>
      <path class="st3" d="M165.14,480.85c0-1.15,0.88-2.01,2.07-2.01c1.18,0,2.07,0.85,2.07,2.01c0,1.16-0.89,2.01-2.07,2.01 C166.02,482.86,165.14,482,165.14,480.85z M168.87,480.85c0-0.94-0.7-1.64-1.65-1.64c-0.95,0-1.66,0.69-1.66,1.64 c0,0.94,0.71,1.63,1.66,1.63C168.16,482.49,168.87,481.79,168.87,480.85z"/>
      <path class="st3" d="M179.6,478.88l-1.33,3.95h-0.44l-1.16-3.37l-1.16,3.37h-0.43l-1.33-3.95h0.43l1.14,3.39l1.18-3.39h0.39 l1.16,3.41l1.16-3.41H179.6z"/>
      <path class="st3" d="M187.73,478.88v3.95h-0.34l-2.54-3.2v3.2h-0.42v-3.95h0.34l2.54,3.2v-3.2H187.73z"/>
      <path class="st3" d="M193.09,478.88h0.42v3.59h2.21v0.36h-2.63V478.88z"/>
      <path class="st3" d="M200.06,480.85c0-1.15,0.88-2.01,2.07-2.01c1.18,0,2.07,0.85,2.07,2.01c0,1.16-0.89,2.01-2.07,2.01 C200.94,482.86,200.06,482,200.06,480.85z M203.79,480.85c0-0.94-0.7-1.64-1.65-1.64c-0.95,0-1.66,0.69-1.66,1.64 c0,0.94,0.71,1.63,1.66,1.63C203.08,482.49,203.79,481.79,203.79,480.85z"/>
      <path class="st3" d="M211.64,481.77h-2.2l-0.47,1.05h-0.43l1.8-3.95h0.41l1.8,3.95h-0.44L211.64,481.77z M211.48,481.43 l-0.95-2.12l-0.95,2.12H211.48z"/>
      <path class="st3" d="M217.28,478.88h1.61c1.26,0,2.11,0.81,2.11,1.97c0,1.16-0.85,1.97-2.11,1.97h-1.61V478.88z M218.86,482.46 c1.05,0,1.73-0.67,1.73-1.61c0-0.95-0.68-1.61-1.73-1.61h-1.17v3.23H218.86z"/>
      <path class="st3" d="M234.04,481.77h-2.2l-0.47,1.05h-0.43l1.8-3.95h0.41l1.8,3.95h-0.44L234.04,481.77z M233.89,481.43 l-0.95-2.12l-0.95,2.12H233.89z"/>
      <path class="st3" d="M239.68,478.88h0.42v3.59h2.21v0.36h-2.63V478.88z"/>
      <path class="st3" d="M247.08,478.88h0.42v3.59h2.21v0.36h-2.63V478.88z"/>
      <path class="st3" d="M260.45,479.24v1.55h2.04v0.36h-2.04v1.67h-0.42v-3.95h2.71v0.36H260.45z"/>
      <path class="st3" d="M267.68,478.88h0.42v3.95h-0.42V478.88z"/>
      <path class="st3" d="M273.46,478.88h0.42v3.59h2.21v0.36h-2.63V478.88z"/>
      <path class="st3" d="M283.64,482.46v0.36h-2.79v-3.95h2.71v0.36h-2.29v1.4h2.04V481h-2.04v1.47H283.64z"/>
      <path class="st3" d="M294.67,479.24v1.55h2.04v0.36h-2.04v1.67h-0.42v-3.95h2.71v0.36H294.67z"/>
      <path class="st3" d="M301.5,480.85c0-1.15,0.88-2.01,2.07-2.01c1.18,0,2.07,0.85,2.07,2.01c0,1.16-0.89,2.01-2.07,2.01 C302.38,482.86,301.5,482,301.5,480.85z M305.23,480.85c0-0.94-0.7-1.64-1.65-1.64c-0.95,0-1.66,0.69-1.66,1.64 c0,0.94,0.71,1.63,1.66,1.63C304.52,482.49,305.23,481.79,305.23,480.85z"/>
      <path class="st3" d="M313.35,482.82l-0.9-1.27c-0.1,0.01-0.2,0.02-0.32,0.02h-1.06v1.25h-0.42v-3.95h1.48c1,0,1.61,0.51,1.61,1.35 c0,0.62-0.33,1.05-0.9,1.24l0.96,1.35H313.35z M313.33,480.23c0-0.63-0.42-0.99-1.21-0.99h-1.05v1.98h1.05 C312.91,481.22,313.33,480.85,313.33,480.23z"/>
      <path class="st3" d="M322.91,478.88v3.95h-0.4v-3.16l-1.55,2.66h-0.2l-1.55-2.64v3.14h-0.4v-3.95h0.34l1.71,2.93l1.7-2.93H322.91z "/>
      <path class="st3" d="M330.74,481.77h-2.2l-0.47,1.05h-0.43l1.8-3.95h0.41l1.8,3.95h-0.44L330.74,481.77z M330.59,481.43 l-0.95-2.12l-0.95,2.12H330.59z"/>
      <path class="st3" d="M336.96,479.24h-1.39v-0.36h3.19v0.36h-1.39v3.59h-0.42V479.24z"/>
      <path class="st3" d="M343.06,482.35l0.16-0.32c0.28,0.28,0.78,0.48,1.3,0.48c0.74,0,1.06-0.31,1.06-0.7 c0-1.08-2.43-0.42-2.43-1.88c0-0.58,0.45-1.08,1.45-1.08c0.45,0,0.91,0.13,1.22,0.35l-0.14,0.33c-0.34-0.22-0.73-0.33-1.08-0.33 c-0.72,0-1.04,0.32-1.04,0.72c0,1.08,2.43,0.43,2.43,1.87c0,0.58-0.46,1.08-1.47,1.08C343.94,482.86,343.36,482.65,343.06,482.35z "/>
    </g>
  </g>
  <g/>
  <g>
    <path d="M 52.517 300.935 C 64.608 300.935 77.244 301.136 89.83 300.834 C 94.916 300.734 96.075 304.359 97.887 307.531 C 113.647 334.671 129.558 361.761 144.966 389.102 C 148.491 395.346 152.469 397.964 159.921 397.863 C 191.442 397.41 222.961 397.813 254.532 397.561 C 259.97 397.51 263.193 398.971 265.811 403.956 C 271.199 414.228 277.291 424.147 283.938 435.577 C 275.278 435.577 268.078 435.577 260.927 435.577 C 219.186 435.577 177.494 435.527 135.752 435.628 C 131.17 435.628 127.695 435.426 124.876 430.491 C 101.009 388.599 76.739 346.957 52.618 305.216 C 52.062 304.057 51.063 303.1 52.517 300.935 Z" style="fill: rgb(160, 162, 164);"/>
    <path d="M 372.608 115.338 C 398.288 159.798 423.061 202.648 447.884 245.448 C 449.395 248.066 450.453 250.332 448.74 253.352 C 423.565 296.655 398.489 340.008 372.557 384.721 C 365.307 372.284 358.711 361.005 352.064 349.676 C 349.748 345.699 352.87 343.03 354.481 340.21 C 370.242 312.667 386.002 285.125 402.165 257.784 C 405.538 252.094 405.488 247.813 402.165 242.124 C 386.002 214.834 370.342 187.19 354.23 159.849 C 351.46 155.167 351.058 151.591 354.028 146.858 C 360.222 137.039 365.911 126.818 372.608 115.338 Z" style="fill: rgb(160, 162, 164);"/>
    <path d="M 283.283 65.791 C 276.838 76.969 270.544 87.241 264.955 97.865 C 262.438 102.649 258.762 102.447 254.583 102.447 C 223.012 102.397 191.442 102.649 159.921 102.246 C 152.57 102.146 148.542 104.562 144.966 110.956 C 129.609 138.348 113.546 165.387 98.038 192.729 C 95.369 197.462 92.549 199.475 86.961 199.275 C 75.276 198.821 63.548 199.123 50.256 199.123 C 57.856 185.982 64.759 173.997 71.652 162.014 C 89.126 131.803 106.598 101.591 124.019 71.329 C 126.084 67.704 127.746 64.633 133.133 64.683 C 182.227 64.935 231.32 64.835 280.413 64.884 C 281.068 64.884 281.622 65.238 283.283 65.791 Z" style="fill: rgb(160, 162, 164);"/>
    <path d="M 393.554 245.548 C 378.903 245.548 366.516 245.448 354.179 245.598 C 350.957 245.649 348.942 244.541 347.332 241.671 C 331.571 214.229 315.66 186.888 298.792 157.734 C 313.545 157.734 326.989 157.734 340.383 157.734 C 342.548 157.734 343.656 159.245 344.663 161.007 C 360.574 188.701 376.586 216.294 393.554 245.548 Z" style="fill: rgb(160, 162, 164);"/>
    <path d="M 284.039 149.124 C 250.656 149.124 219.186 149.124 187.665 149.074 C 185.298 149.074 182.731 149.879 181.018 146.808 C 174.574 135.277 167.927 123.897 160.575 111.209 C 194.21 111.209 226.234 111.209 258.258 111.158 C 261.23 111.158 262.79 112.417 264.2 114.885 C 270.443 125.912 276.838 136.737 284.039 149.124 Z" style="fill: rgb(160, 162, 164);"/>
    <path d="M 152.871 384.217 C 136.054 355.215 120.092 327.572 103.979 300.029 C 102.217 297.008 102.973 294.792 104.533 292.174 C 110.777 281.549 116.92 270.825 123.013 260.301 C 126.437 260.2 126.588 263.02 127.595 264.732 C 142.147 289.657 156.446 314.682 171.099 339.505 C 174.07 344.489 174.221 348.317 171.048 353.251 C 164.906 362.818 159.468 372.838 152.871 384.217 Z" style="fill: rgb(160, 162, 164);"/>
    <path d="M 152.771 116.042 C 159.921 128.378 166.366 139.507 172.911 150.584 C 174.422 153.102 174.07 155.116 172.66 157.583 C 156.648 185.126 140.787 212.718 124.12 241.57 C 116.769 228.932 110.072 217.553 103.426 206.173 C 102.369 204.36 102.569 202.598 103.627 200.786 C 119.74 172.941 135.903 145.096 152.771 116.042 Z" style="fill: rgb(160, 162, 164);"/>
    <path d="M 298.842 342.274 C 313.998 315.991 328.801 291.318 342.548 266.041 C 347.432 257.028 352.82 253.051 363.243 254.259 C 372.608 255.316 382.175 254.461 391.692 254.461 C 392.296 258.589 389.778 260.906 388.217 263.524 C 374.471 287.441 360.423 311.207 347.029 335.326 C 343.907 340.915 340.433 342.677 334.29 342.425 C 323.163 341.922 312.034 342.274 298.842 342.274 Z" style="fill: rgb(160, 162, 164);"/>
    <path class="st5" d="M 160.777 388.749 C 167.977 376.313 174.221 365.688 180.213 354.913 C 181.824 351.992 183.838 351.137 187.01 351.137 C 218.732 351.237 250.454 351.187 283.837 351.187 C 276.637 363.674 270.091 375.104 263.545 386.483 C 262.488 388.346 260.676 388.749 258.661 388.749 C 226.687 388.749 194.663 388.749 160.777 388.749 Z" style="fill: rgb(160, 162, 164);"/>
    <path class="st5" d="M 291.994 144.743 C 284.946 132.608 278.651 121.682 272.306 110.857 C 270.696 108.138 270.595 105.771 272.306 102.951 C 278.752 92.125 284.946 81.199 292.045 68.964 C 299.245 81.4 305.791 92.83 312.387 104.209 C 313.495 106.073 313.545 107.684 312.488 109.497 C 305.791 120.877 299.194 132.307 291.994 144.743 Z" style="fill: rgb(160, 162, 164);"/>
    <path class="st5" d="M 364.552 110.956 C 357.402 123.293 350.805 134.421 344.512 145.649 C 342.699 148.872 340.131 148.821 337.261 148.821 C 325.176 148.821 313.042 148.821 298.741 148.821 C 306.194 135.982 312.991 124.099 319.99 112.366 C 320.594 111.41 322.76 111.007 324.219 111.007 C 337.16 110.907 350.151 110.956 364.552 110.956 Z" style="fill: rgb(160, 162, 164);"/>
    <path class="st5" d="M 50.306 208.338 C 55.746 208.338 59.521 208.287 63.245 208.338 C 73.671 208.54 87.565 204.713 93.708 209.949 C 103.627 218.408 108.411 232.859 116.165 246.203 C 101.614 246.203 88.723 246.152 75.881 246.253 C 72.864 246.304 71.4 244.894 70.038 242.476 C 63.851 231.5 57.502 220.674 50.306 208.338 Z" style="fill: rgb(160, 162, 164);"/>
    <path class="st5" d="M 50.357 292.023 C 57.654 279.334 64.204 267.904 70.845 256.474 C 71.905 254.712 73.57 254.108 75.679 254.108 C 88.622 254.158 101.563 254.158 116.064 254.158 C 108.914 266.494 102.369 277.622 95.974 288.801 C 94.715 290.966 93.305 292.073 90.737 292.073 C 77.799 291.973 64.86 292.023 50.357 292.023 Z" style="fill: rgb(160, 162, 164);"/>
    <path class="st5" d="M 298.893 351.539 C 313.193 351.539 325.629 351.539 338.016 351.539 C 340.484 351.539 342.749 351.187 344.411 354.208 C 350.605 365.486 357.2 376.615 364.602 389.404 C 350.051 389.404 337.211 389.354 324.32 389.454 C 321.803 389.454 320.141 388.498 318.933 386.383 C 312.588 375.154 306.093 363.976 298.893 351.539 Z" style="fill: rgb(160, 162, 164);"/>
    <path class="st5" d="M 292.045 431.297 C 285.045 419.213 278.953 408.487 272.709 397.913 C 271.149 395.245 270.192 392.827 271.853 389.958 C 278.349 378.88 284.845 367.752 292.095 355.416 C 299.346 367.954 305.892 379.434 312.588 390.814 C 313.998 393.181 313.042 394.892 311.883 396.907 C 305.489 407.783 299.245 418.76 292.045 431.297 Z" style="fill: rgb(160, 162, 164);"/>
  </g>
</svg>