<?xml version="1.0" encoding="utf-8"?>
<svg role="img" viewBox="0 0 400 400" xmlns="http://www.w3.org/2000/svg" id="Langchain--Streamline-Simple-Icons" height="400" width="400">
  <desc>
    Langchain Streamline Icon: https://streamlinehq.com
  </desc>
  <title>LangChain</title>
  <path d="M101.64666666666668 98.62500000000001C45.598333333333336 98.62500000000001 0 144.10333333333335 0 200s45.60000000000001 101.375 101.64666666666668 101.375h196.70666666666668C354.4016666666667 301.375 400 255.89666666666668 400 200s-45.60000000000001 -101.375 -101.64666666666668 -101.375ZM99.62333333333335 130.85000000000002c8.216666666666667 0.20666666666666667 17 4.16 21.216666666666665 10.38 6.121666666666667 7.653333333333334 7.963333333333334 17.78 14.906666666666668 24.88666666666667 9.340000000000002 10.196666666666667 19.983333333333334 19.175000000000004 28.601666666666667 30.033333333333335 8.153333333333334 9.923333333333336 13.976666666666668 21.56166666666667 19.060000000000002 33.29166666666667 2.0733333333333333 3.891666666666667 2.095 8.67 5.166666666666667 11.995000000000001 1.5133333333333336 2.006666666666667 8.91 7.471666666666667 7.305000000000001 9.408333333333333 0.925 2.006666666666667 7.836666666666668 4.766666666666667 5.4383333333333335 6.711666666666667 -3.24 0.6666666666666667 -6.881666666666667 0.7933333333333334 -9.360000000000001 -1.79 -0.915 2.1 -3.0500000000000003 0.9933333333333334 -4.698333333333333 0.7200000000000001a66.66666666666667 66.66666666666667 0 0 0 -0.41666666666666674 1.2266666666666668c-5.48 0.365 -9.590000000000002 -5.21 -12.200000000000001 -9.416666666666666 -5.1850000000000005 -2.8000000000000003 -11.07 -4.503333333333334 -16.366666666666667 -7.433333333333334 -0.30333333333333334 4.825 0.7533333333333333 10.808333333333334 -3.8500000000000005 13.921666666666669 -0.23333333333333336 9.275 14.06 1.0933333333333335 15.370000000000001 8.006666666666668 -1.0166666666666666 0.11166666666666668 -2.1433333333333335 -0.15833333333333335 -2.956666666666667 0.6216666666666667 -3.731666666666667 3.62 -8.008333333333333 -2.741666666666667 -12.308333333333335 -0.11666666666666668 -5.773333333333333 2.9 -6.346666666666668 5.2683333333333335 -13.493333333333334 5.866666666666667 -0.395 -0.5983333333333334 -0.23833333333333334 -0.9866666666666668 0.09833333333333334 -1.3516666666666668 2.0116666666666667 -2.3316666666666666 2.1583333333333337 -5.076666666666667 5.593333333333334 -6.071666666666667 -3.536666666666667 -0.5566666666666666 -6.498333333333334 1.3883333333333334 -9.476666666666667 2.9283333333333337 -3.871666666666667 1.5833333333333335 -3.8400000000000003 -3.568333333333334 -9.796666666666667 0.2733333333333334 -0.6600000000000001 -0.5366666666666667 -0.3466666666666667 -1.0250000000000001 0.030000000000000002 -1.4400000000000002 1.5133333333333336 -1.8450000000000002 3.5033333333333334 -2.1166666666666667 5.75 -2.0133333333333336 -11.05 -6.1433333333333335 -16.25166666666667 7.511666666666667 -21.355000000000004 0.7200000000000001 -1.5333333333333334 0.405 -2.1083333333333334 1.7800000000000002 -3.075 2.753333333333334 -0.8333333333333335 -0.9133333333333334 -0.20500000000000002 -2.02 -0.16500000000000004 -3.095 -0.9966666666666667 -0.46666666666666673 -2.2600000000000002 -0.6833333333333335 -1.9650000000000003 -2.276666666666667 -1.9516666666666667 -0.6583333333333334 -3.3133333333333335 0.4916666666666667 -4.766666666666667 1.586666666666667 -1.3116666666666668 -1.0133333333333334 0.8866666666666667 -2.486666666666667 1.2933333333333334 -3.541666666666667 1.1700000000000002 -2.026666666666667 3.833333333333334 -0.41666666666666674 5.1850000000000005 -1.876666666666667 3.8433333333333337 -2.18 9.200000000000001 1.3566666666666667 13.591666666666669 0.7583333333333334 3.3833333333333337 0.425 7.573333333333334 -3.041666666666667 5.876666666666668 -6.500000000000001 -3.618333333333333 -4.611666666666667 -2.9833333333333334 -10.643333333333333 -3.0650000000000004 -16.158333333333335 -0.4466666666666667 -3.215 -8.183333333333334 -7.303333333333334 -10.42 -10.770000000000001 -2.765 -3.1216666666666666 -4.916666666666667 -6.745 -7.071666666666667 -10.303333333333333 -7.776666666666667 -15.013333333333335 -5.33 -34.306666666666665 -15.128333333333334 -48.245 -4.433333333333334 2.443333333333334 -10.208333333333334 1.29 -14.030000000000001 -1.9833333333333334 -2.0633333333333335 1.8750000000000002 -2.1533333333333338 4.33 -2.316666666666667 6.9350000000000005 -4.95 -4.936666666666667 -4.321666666666666 -14.265 -0.3666666666666667 -19.758333333333336 1.6150000000000002 -2.1700000000000004 3.5450000000000004 -3.9550000000000005 5.700000000000001 -5.526666666666667 0.4866666666666667 -0.35500000000000004 0.6516666666666667 -0.6983333333333334 0.6416666666666667 -1.245 1.9566666666666668 -8.778333333333332 9.606666666666667 -12.318333333333333 17.823333333333334 -12.111666666666668m206.78500000000003 7.666666666666668c9.291666666666668 0 18.01 3.5983333333333336 24.566666666666666 10.136666666666667s10.166666666666668 15.241666666666667 10.166666666666668 24.506666666666668c0 9.266666666666667 -3.611666666666667 17.96666666666667 -10.166666666666668 24.49666666666667v0.01l-15.033333333333335 14.991666666666667a34.66666666666667 34.66666666666667 0 0 1 -14.328333333333335 8.61l-0.2733333333333334 0.07833333333333334 -0.09666666666666666 0.2733333333333334a34.166666666666664 34.166666666666664 0 0 1 -7.9 12.180000000000001l-15.030000000000001 14.991666666666667c-6.5566666666666675 6.540000000000001 -15.283333333333335 10.138333333333334 -24.575 10.138333333333334s-18.01 -3.6 -24.566666666666666 -10.138333333333334c-13.55 -13.511666666666667 -13.55 -35.49 0 -49.00333333333334l15.031666666666668 -14.991666666666667a34.26666666666667 34.26666666666667 0 0 1 14.3 -8.571666666666667l0.2833333333333334 -0.08833333333333333 0.09666666666666666 -0.26333333333333336a34.5 34.5 0 0 1 7.920000000000001 -12.228333333333335l15.030000000000001 -14.991666666666667c6.5566666666666675 -6.540000000000001 15.285000000000002 -10.138333333333334 24.575 -10.138333333333334zm0 14.941666666666666a19.666666666666668 19.666666666666668 0 0 0 -13.98 5.7700000000000005l-15.030000000000001 14.991666666666667a19.683333333333337 19.683333333333337 0 0 0 -5.711666666666667 15.420000000000002l0.08833333333333333 0.9533333333333334c0.5383333333333334 4.42 2.4833333333333334 8.406666666666666 5.623333333333333 11.528333333333334 2.166666666666667 2.16 4.555 3.523333333333334 7.451666666666667 4.4766666666666675a15.000000000000002 15.000000000000002 0 0 1 0.23333333333333336 2.636666666666667 14.733333333333334 14.733333333333334 0 0 1 -4.348333333333334 10.506666666666666l-0.9233333333333333 0.9233333333333333c-5.021666666666667 -1.7133333333333336 -9.208333333333334 -4.216666666666667 -12.99 -7.986666666666667a34.333333333333336 34.333333333333336 0 0 1 -9.601666666666667 -18.28l-0.16500000000000004 -0.9633333333333334 -0.7683333333333334 0.6133333333333334a18.333333333333336 18.333333333333336 0 0 0 -1.46 1.3233333333333335l-15.040000000000001 14.991666666666667c-7.705 7.6833333333333345 -7.705 20.2 0 27.883333333333336 3.851666666666667 3.8416666666666672 8.916666666666668 5.766666666666667 13.990000000000002 5.768333333333334 5.071666666666667 0 10.128333333333334 -1.9266666666666667 13.98 -5.7700000000000005l15.031666666666668 -14.991666666666667c7.705 -7.6833333333333345 7.705 -20.188333333333336 0 -27.883333333333336a19.5 19.5 0 0 0 -7.278333333333333 -4.581666666666667 16.666666666666668 16.666666666666668 0 0 1 -0.23333333333333336 -2.685c0 -4.318333333333333 1.705 -8.416666666666668 4.835000000000001 -11.538333333333334 5.031666666666667 1.7133333333333336 9.5 4.49 13.270000000000001 8.25 5.011666666666668 4.998333333333334 8.323333333333334 11.316666666666668 9.593333333333334 18.28l0.17500000000000002 0.9633333333333334 0.7583333333333334 -0.6216666666666667a18.333333333333336 18.333333333333336 0 0 0 1.4783333333333335 -1.3233333333333335l15.033333333333335 -14.993333333333334c7.703333333333334 -7.6833333333333345 7.713333333333334 -20.206666666666667 0 -27.89166666666667a19.666666666666668 19.666666666666668 0 0 0 -13.991666666666669 -5.7700000000000005Zm-166.2166666666667 85.94500000000001 -0.01 0.01c-1.3216666666666668 5.130000000000001 -1.7466666666666668 13.863333333333333 -8.433333333333334 14.116666666666667 -0.55 2.9600000000000004 2.046666666666667 4.075 4.425000000000001 3.1233333333333335 2.35 -1.0750000000000002 3.4683333333333337 0.8466666666666667 4.261666666666667 2.7616666666666667 3.628333333333334 0.5283333333333333 8.99 -1.2083333333333333 9.193333333333333 -5.496666666666667 -5.416666666666667 -3.111666666666667 -7.088333333333334 -9.03 -9.436666666666667 -14.515" stroke-width="16.6667" style="fill: rgb(160, 162, 164);"/>
</svg>