<?xml version="1.0" standalone="no"?>
<svg version="1.0" xmlns="http://www.w3.org/2000/svg"
 width="1280" height="1280" viewBox="0 -291 1280 1280"
 preserveAspectRatio="xMidYMid meet">
<g transform="translate(0.000000,698.000000) scale(0.100000,-0.100000)"
fill="#000000" stroke="none">
<path d="M3553 5208 c-14 -24 -107 -178 -206 -343 -99 -165 -323 -540 -498
-832 -176 -293 -319 -537 -319 -542 0 -9 965 -1620 1012 -1689 l29 -42 1292 2
1292 3 113 160 c62 88 148 211 190 272 42 62 82 113 87 112 6 0 75 -81 154
-180 l144 -179 1224 0 1223 0 24 37 c108 171 657 1017 863 1332 l115 174 -157
231 c-86 127 -224 330 -306 451 -83 121 -176 258 -207 305 -269 397 -338 498
-355 518 l-20 22 -1272 0 -1272 0 -80 -112 c-44 -62 -132 -187 -197 -277 -599
-831 -826 -1154 -818 -1165 5 -6 87 -108 183 -226 96 -118 203 -249 237 -291
l62 -77 -122 -161 -122 -161 -981 2 -980 3 -160 265 c-88 146 -215 356 -283
468 l-123 204 237 391 c131 216 258 427 283 470 l46 77 930 -1 930 -1 58 -69
c32 -38 62 -69 67 -69 5 0 28 28 52 63 23 34 113 162 200 285 87 123 158 228
158 233 0 6 -33 52 -72 104 -40 51 -104 134 -143 184 l-70 91 -1207 0 -1208 0
-27 -42z m6086 -1007 l471 -710 -103 -163 c-57 -90 -205 -320 -329 -513 -123
-192 -284 -443 -357 -557 l-133 -208 -1129 0 -1129 0 -19 22 c-76 88 -281 354
-281 363 0 15 58 95 68 94 4 0 74 -83 155 -185 l148 -184 1055 2 1056 3 242
380 c133 209 322 505 420 659 103 161 176 285 173 295 -2 9 -128 203 -279 431
-150 228 -343 520 -427 648 l-153 232 -1116 -2 -1115 -3 -70 -100 c-39 -55
-136 -194 -217 -310 -81 -115 -191 -273 -245 -350 -225 -320 -395 -566 -395
-571 0 -5 172 -222 269 -339 22 -27 41 -53 41 -58 0 -14 -63 -98 -71 -95 -4 2
-95 113 -203 248 l-195 244 33 46 c18 25 108 153 201 285 93 132 291 413 440
625 149 212 286 406 304 433 l32 47 1193 0 1193 0 472 -709z m-477 279 c76
-118 251 -389 388 -602 l250 -386 -93 -149 c-52 -81 -138 -218 -192 -303 -54
-85 -186 -296 -294 -467 l-196 -313 -975 0 -975 1 -58 72 c-33 40 -102 125
-154 189 -61 76 -92 122 -87 130 14 24 497 722 536 775 21 29 38 57 38 62 0 6
-19 37 -42 70 -187 260 -466 635 -477 639 -4 1 -27 -26 -51 -60 -24 -35 -111
-156 -192 -270 -81 -114 -148 -212 -148 -219 0 -7 21 -38 48 -68 26 -31 53
-64 60 -73 12 -15 -1 -36 -104 -172 -65 -86 -120 -156 -124 -156 -5 0 -123
139 -213 251 l-37 46 169 244 c93 134 283 409 423 611 l253 368 1054 -3 1053
-2 140 -215z"/>
</g>
</svg>
